<svg version="1.1" id="Calque_1" xmlns="http://www.w3.org/2000/svg" xmlns:xlink="http://www.w3.org/1999/xlink" x="0" y="0" viewBox="0 0 256 256" style="enable-background:new 0 0 256 256" xml:space="preserve"><style></style><g id="Calque_12"><defs><circle id="SVGID_1_" cx="128" cy="128.2" r="121.5"/></defs><clipPath id="SVGID_00000115474229357761132120000000154980483970087041_"><use xlink:href="#SVGID_1_" style="overflow:visible"/></clipPath><g style="clip-path:url(#SVGID_00000115474229357761132120000000154980483970087041_)"><linearGradient id="SVGID_00000091693466914536667580000004121312056334276502_" gradientUnits="userSpaceOnUse" x1="130.05" y1="371.341" x2="130.05" y2="56.554" gradientTransform="matrix(1 0 0 -1 0 258)"><stop offset="0" style="stop-color:#007174"/><stop offset="1" style="stop-color:#007174;stop-opacity:0"/></linearGradient><path style="fill:url(#SVGID_00000091693466914536667580000004121312056334276502_)" d="M130.1 160.6 109.8-26.7h40.5z"/><linearGradient id="SVGID_00000027601237670143520790000008155319885900142744_" gradientUnits="userSpaceOnUse" x1="88.494" y1="371.341" x2="88.494" y2="56.553" gradientTransform="matrix(1 0 0 -1 0 258)"><stop offset="0" style="stop-color:#007174"/><stop offset="1" style="stop-color:#007174;stop-opacity:0"/></linearGradient><path style="fill:url(#SVGID_00000027601237670143520790000008155319885900142744_)" d="M130.1 155.3 46.9-13.8 85-27.7z"/><linearGradient id="SVGID_00000180333139468742322730000011879153053335883428_" gradientUnits="userSpaceOnUse" x1="62.077" y1="371.341" x2="62.077" y2="56.554" gradientTransform="matrix(1 0 0 -1 0 258)"><stop offset="0" style="stop-color:#007174"/><stop offset="1" style="stop-color:#007174;stop-opacity:0"/></linearGradient><path style="fill:url(#SVGID_00000180333139468742322730000011879153053335883428_)" d="M130.1 155.3-5.9 24.8l31-26z"/><linearGradient id="SVGID_00000147925522396711524540000004474077430488067240_" gradientUnits="userSpaceOnUse" x1="43.857" y1="371.341" x2="43.857" y2="56.553" gradientTransform="matrix(1 0 0 -1 0 258)"><stop offset="0" style="stop-color:#007174"/><stop offset="1" style="stop-color:#007174;stop-opacity:0"/></linearGradient><path style="fill:url(#SVGID_00000147925522396711524540000004474077430488067240_)" d="M130.1 155.3-42.3 79.2l20.2-35.1z"/><linearGradient id="SVGID_00000134953740994564624610000018157638881123836860_" gradientUnits="userSpaceOnUse" x1="36.035" y1="371.34" x2="36.035" y2="56.553" gradientTransform="matrix(1 0 0 -1 0 258)"><stop offset="0" style="stop-color:#007174"/><stop offset="1" style="stop-color:#007174;stop-opacity:0"/></linearGradient><path style="fill:url(#SVGID_00000134953740994564624610000018157638881123836860_)" d="M130.1 155.3-58 142.7l7.1-39.9z"/><linearGradient id="SVGID_00000105403256399146326230000016859538539129626269_" gradientUnits="userSpaceOnUse" x1="36.036" y1="371.341" x2="36.036" y2="56.553" gradientTransform="matrix(1 0 0 -1 0 258)"><stop offset="0" style="stop-color:#007174"/><stop offset="1" style="stop-color:#007174;stop-opacity:0"/></linearGradient><path style="fill:url(#SVGID_00000105403256399146326230000016859538539129626269_)" d="m130.1 155.3-181 52.5-7.1-39.9z"/><linearGradient id="SVGID_00000086677288299826419310000009246347946960588207_" gradientUnits="userSpaceOnUse" x1="43.857" y1="371.342" x2="43.857" y2="56.553" gradientTransform="matrix(1 0 0 -1 0 258)"><stop offset="0" style="stop-color:#007174"/><stop offset="1" style="stop-color:#007174;stop-opacity:0"/></linearGradient><path style="fill:url(#SVGID_00000086677288299826419310000009246347946960588207_)" d="M130.1 155.3-22.1 266.5l-20.2-35z"/><linearGradient id="SVGID_00000016778167011929415590000012681506315378660265_" gradientUnits="userSpaceOnUse" x1="62.077" y1="371.341" x2="62.077" y2="56.552" gradientTransform="matrix(1 0 0 -1 0 258)"><stop offset="0" style="stop-color:#007174"/><stop offset="1" style="stop-color:#007174;stop-opacity:0"/></linearGradient><path style="fill:url(#SVGID_00000016778167011929415590000012681506315378660265_)" d="m130.1 155.3-105 156.6-31-26.1z"/><linearGradient id="SVGID_00000080170008090952670240000000646570727429737655_" gradientUnits="userSpaceOnUse" x1="88.494" y1="371.342" x2="88.494" y2="56.553" gradientTransform="matrix(1 0 0 -1 0 258)"><stop offset="0" style="stop-color:#007174"/><stop offset="1" style="stop-color:#007174;stop-opacity:0"/></linearGradient><path style="fill:url(#SVGID_00000080170008090952670240000000646570727429737655_)" d="M130.1 155.3 85 338.3l-38.1-13.9z"/><linearGradient id="SVGID_00000038385135553332026360000018263208030712251039_" gradientUnits="userSpaceOnUse" x1="130.051" y1="371.341" x2="130.051" y2="56.554" gradientTransform="matrix(1 0 0 -1 0 258)"><stop offset="0" style="stop-color:#007174"/><stop offset="1" style="stop-color:#007174;stop-opacity:0"/></linearGradient><path style="fill:url(#SVGID_00000038385135553332026360000018263208030712251039_)" d="m130.1 155.1 20.2 187.3h-40.5z"/><linearGradient id="SVGID_00000078009882972880123200000004371847188357311660_" gradientUnits="userSpaceOnUse" x1="171.607" y1="371.341" x2="171.607" y2="56.552" gradientTransform="matrix(1 0 0 -1 0 258)"><stop offset="0" style="stop-color:#007174"/><stop offset="1" style="stop-color:#007174;stop-opacity:0"/></linearGradient><path style="fill:url(#SVGID_00000078009882972880123200000004371847188357311660_)" d="m130.1 155.3 83.1 169.1-38.1 13.9z"/><linearGradient id="SVGID_00000106860993197077838560000012074702901708876459_" gradientUnits="userSpaceOnUse" x1="198.028" y1="371.342" x2="198.028" y2="56.554" gradientTransform="matrix(1 0 0 -1 0 258)"><stop offset="0" style="stop-color:#007174"/><stop offset="1" style="stop-color:#007174;stop-opacity:0"/></linearGradient><path style="fill:url(#SVGID_00000106860993197077838560000012074702901708876459_)" d="M130.1 155.3 266 285.8l-31 26.1z"/><linearGradient id="SVGID_00000093175828304174530840000005327470071265782686_" gradientUnits="userSpaceOnUse" x1="216.244" y1="371.342" x2="216.244" y2="56.553" gradientTransform="matrix(1 0 0 -1 0 258)"><stop offset="0" style="stop-color:#007174"/><stop offset="1" style="stop-color:#007174;stop-opacity:0"/></linearGradient><path style="fill:url(#SVGID_00000093175828304174530840000005327470071265782686_)" d="m130.1 155.3 172.3 76.2-20.2 35z"/><linearGradient id="SVGID_00000155864824594941757700000009398784078720272042_" gradientUnits="userSpaceOnUse" x1="224.066" y1="371.341" x2="224.066" y2="56.553" gradientTransform="matrix(1 0 0 -1 0 258)"><stop offset="0" style="stop-color:#007174"/><stop offset="1" style="stop-color:#007174;stop-opacity:0"/></linearGradient><path style="fill:url(#SVGID_00000155864824594941757700000009398784078720272042_)" d="m130.1 155.3 188 12.6-7.1 39.9z"/><linearGradient id="SVGID_00000003091681130662873470000014251944319482380944_" gradientUnits="userSpaceOnUse" x1="224.063" y1="371.342" x2="224.063" y2="56.553" gradientTransform="matrix(1 0 0 -1 0 258)"><stop offset="0" style="stop-color:#007174"/><stop offset="1" style="stop-color:#007174;stop-opacity:0"/></linearGradient><path style="fill:url(#SVGID_00000003091681130662873470000014251944319482380944_)" d="M130.1 155.3 311 102.8l7.1 39.9z"/><linearGradient id="SVGID_00000168114063780956721900000014383950738408229532_" gradientUnits="userSpaceOnUse" x1="216.244" y1="371.341" x2="216.244" y2="56.553" gradientTransform="matrix(1 0 0 -1 0 258)"><stop offset="0" style="stop-color:#007174"/><stop offset="1" style="stop-color:#007174;stop-opacity:0"/></linearGradient><path style="fill:url(#SVGID_00000168114063780956721900000014383950738408229532_)" d="M130.1 155.3 282.2 44.1l20.2 35.1z"/><linearGradient id="SVGID_00000077308419972023329190000016756360038945846182_" gradientUnits="userSpaceOnUse" x1="198.023" y1="371.341" x2="198.023" y2="56.553" gradientTransform="matrix(1 0 0 -1 0 258)"><stop offset="0" style="stop-color:#007174"/><stop offset="1" style="stop-color:#007174;stop-opacity:0"/></linearGradient><path style="fill:url(#SVGID_00000077308419972023329190000016756360038945846182_)" d="M130.1 155.3 235-1.2l31 26z"/><linearGradient id="SVGID_00000016076308262690742640000012024066430970663300_" gradientUnits="userSpaceOnUse" x1="171.607" y1="371.341" x2="171.607" y2="56.553" gradientTransform="matrix(1 0 0 -1 0 258)"><stop offset="0" style="stop-color:#007174"/><stop offset="1" style="stop-color:#007174;stop-opacity:0"/></linearGradient><path style="fill:url(#SVGID_00000016076308262690742640000012024066430970663300_)" d="m130.1 155.3 45-183 38.1 13.9z"/></g><path d="m199.3 120.9-13.7-35.3c-2.6-6.8-8.1-12.5-18.7-12.6H95c-10.5 0-16.1 5.8-18.7 12.6l-13.7 35.3c-5.4.7-15 7.1-15 19.2v45h13.3v14.4c0 17.7 25 17.5 25 0V185H176v14.4c.1 17.5 25.1 17.7 25.1 0V185h13.3v-45c0-12-9.6-18.4-15.1-19.1zm-125.5 37c-6.4 0-11.6-5.3-11.5-11.9 0-6.6 5.2-11.9 11.5-11.9 6.4-.1 11.6 5.3 11.5 11.9.1 6.6-5.1 11.9-11.5 11.9zm57.2-37.3H76.9l10.3-27.8c1.2-3.9 3.2-6.8 7.7-6.8h72.2c4.5.1 6.4 2.9 7.7 6.8l10.3 27.8H131zm57.2 37.3c-6.4 0-11.6-5.3-11.7-11.9 0-6.6 5.2-11.9 11.7-11.9 6.3-.1 11.5 5.3 11.5 11.9 0 6.6-5.2 11.9-11.5 11.9z" style="fill:#19161b"/></g></svg>