<svg xmlns="http://www.w3.org/2000/svg" viewBox="0 0 256 256" xml:space="preserve"><path fill="#ADC503" d="M41.627 151.993c-13.23 0-23.993-10.763-23.993-23.993 0-13.23 10.763-23.993 23.993-23.993 13.229 0 23.993 10.763 23.993 23.993 0 13.23-10.764 23.993-23.993 23.993z"/><path fill="#19161B" d="M41.627 108.806c10.584 0 19.194 8.61 19.194 19.194s-8.61 19.194-19.194 19.194-19.194-8.61-19.194-19.194 8.61-19.194 19.194-19.194m0-9.597c-15.902 0-28.791 12.891-28.791 28.791 0 15.902 12.889 28.791 28.791 28.791 15.902 0 28.791-12.889 28.791-28.791 0-15.9-12.889-28.791-28.791-28.791z"/><path fill="#ADC503" d="M99.209 151.993c-13.229 0-23.993-10.763-23.993-23.993 0-13.23 10.763-23.993 23.993-23.993S123.202 114.77 123.202 128c0 13.23-10.764 23.993-23.993 23.993z"/><path fill="#19161B" d="M99.209 108.806c10.584 0 19.194 8.61 19.194 19.194s-8.61 19.194-19.194 19.194-19.194-8.61-19.194-19.194 8.61-19.194 19.194-19.194m0-9.597c-15.902 0-28.791 12.891-28.791 28.791 0 15.902 12.889 28.791 28.791 28.791S128 143.902 128 128c0-15.9-12.889-28.791-28.791-28.791z"/><path fill="#ADC503" d="M156.791 151.993c-13.229 0-23.993-10.763-23.993-23.993 0-13.23 10.763-23.993 23.993-23.993 13.23 0 23.993 10.763 23.993 23.993 0 13.23-10.763 23.993-23.993 23.993z"/><path fill="#19161B" d="M156.791 108.806c10.584 0 19.194 8.61 19.194 19.194s-8.61 19.194-19.194 19.194-19.194-8.61-19.194-19.194 8.61-19.194 19.194-19.194m0-9.597C140.889 99.209 128 112.1 128 128c0 15.902 12.889 28.791 28.791 28.791s28.791-12.889 28.791-28.791c0-15.9-12.889-28.791-28.791-28.791z"/><path fill="#ADC503" d="M214.373 151.993c-13.229 0-23.993-10.763-23.993-23.993 0-13.23 10.763-23.993 23.993-23.993S238.366 114.77 238.366 128c0 13.23-10.763 23.993-23.993 23.993z"/><path fill="#19161B" d="M214.373 108.806c10.584 0 19.194 8.61 19.194 19.194s-8.61 19.194-19.194 19.194-19.194-8.61-19.194-19.194 8.611-19.194 19.194-19.194m0-9.597c-15.902 0-28.791 12.891-28.791 28.791 0 15.902 12.889 28.791 28.791 28.791s28.791-12.889 28.791-28.791c0-15.9-12.888-28.791-28.791-28.791z"/></svg>